<svg width="34" height="34" viewBox="0 0 34 34" fill="none" xmlns="http://www.w3.org/2000/svg">
<path d="M21 19V20H3V19L5 17V11C5 7.9 7.03 5.17 10 4.29C10 4.19 10 4.1 10 4C10 3.46957 10.2107 2.96086 10.5858 2.58579C10.9609 2.21071 11.4696 2 12 2C12.5304 2 13.0391 2.21071 13.4142 2.58579C13.7893 2.96086 14 3.46957 14 4C14 4.1 14 4.19 14 4.29C16.97 5.17 19 7.9 19 11V17L21 19ZM14 21C14 21.5304 13.7893 22.0391 13.4142 22.4142C13.0391 22.7893 12.5304 23 12 23C11.4696 23 10.9609 22.7893 10.5858 22.4142C10.2107 22.0391 10 21.5304 10 21" fill="#966EF7"/>
<rect x="14" y="14" width="20" height="20" rx="10" fill="#F68C29"/>
<path d="M23.8081 19.861C24.5014 19.861 25.0561 19.926 25.4721 20.056C25.8881 20.1773 26.1914 20.3897 26.3821 20.693C26.5814 20.9963 26.6811 21.4123 26.6811 21.941C26.6811 22.3397 26.6421 22.6993 26.5641 23.02C26.4861 23.332 26.3474 23.592 26.1481 23.8C25.9574 23.9993 25.6801 24.1337 25.3161 24.203V24.255C25.9228 24.3503 26.3388 24.5887 26.5641 24.97C26.7894 25.3513 26.9064 25.8627 26.9151 26.504C26.9238 27.1193 26.8328 27.6263 26.6421 28.025C26.4514 28.415 26.1351 28.7053 25.6931 28.896C25.2598 29.078 24.6704 29.169 23.9251 29.169C23.4311 29.169 22.9284 29.143 22.4171 29.091C21.9058 29.0477 21.4118 28.9957 20.9351 28.935L21.0131 27.713C21.3424 27.7303 21.6414 27.7477 21.9101 27.765C22.1874 27.7823 22.4518 27.7953 22.7031 27.804C22.9631 27.8127 23.2274 27.817 23.4961 27.817C23.9468 27.817 24.3021 27.7737 24.5621 27.687C24.8308 27.6003 25.0214 27.4443 25.1341 27.219C25.2554 26.9937 25.3161 26.6903 25.3161 26.309C25.3161 26.0057 25.2728 25.75 25.1861 25.542C25.1081 25.3253 24.9564 25.1607 24.7311 25.048C24.5144 24.9267 24.1894 24.8703 23.7561 24.879H22.0791V23.748H23.7561C24.0681 23.748 24.3151 23.709 24.4971 23.631C24.6878 23.553 24.8264 23.4533 24.9131 23.332C25.0084 23.202 25.0691 23.0547 25.0951 22.89C25.1298 22.7167 25.1471 22.539 25.1471 22.357C25.1384 22.0277 25.0864 21.7807 24.9911 21.616C24.8958 21.4513 24.7311 21.343 24.4971 21.291C24.2718 21.2303 23.9554 21.2 23.5481 21.2C23.1061 21.2 22.6814 21.2087 22.2741 21.226C21.8668 21.2347 21.5071 21.252 21.1951 21.278L21.1041 20.095C21.5721 20.017 22.0271 19.9607 22.4691 19.926C22.9198 19.8827 23.3661 19.861 23.8081 19.861Z" fill="white"/>
</svg>
