<svg width="17" height="17" viewBox="0 0 17 17" fill="none" xmlns="http://www.w3.org/2000/svg">
<path fill-rule="evenodd" clip-rule="evenodd" d="M0 8.50002C0 3.80801 3.80801 0 8.50002 0C13.192 0 17 3.80801 17 8.50002C17 13.192 13.192 17 8.50002 17C3.80801 17 0 13.192 0 8.50002ZM9.35002 7.65002V12.75H7.65002V7.65002H9.35002ZM8.50002 15.3C4.75151 15.3 1.7 12.2485 1.7 8.50002C1.7 4.75151 4.75151 1.7 8.50002 1.7C12.2485 1.7 15.3 4.75151 15.3 8.50002C15.3 12.2485 12.2485 15.3 8.50002 15.3ZM9.35002 4.25001V5.95001H7.65002V4.25001H9.35002Z" fill="#959595"/>
</svg>
