<svg width="24" height="24" viewBox="0 0 24 24" fill="none" xmlns="http://www.w3.org/2000/svg">
<mask id="mask0_1841_841" style="mask-type:luminance" maskUnits="userSpaceOnUse" x="10" y="4" width="4" height="16">
<path fill-rule="evenodd" clip-rule="evenodd" d="M11.9716 7.94286C13.0859 7.94286 13.943 7 13.943 5.97143C13.943 4.94286 13.0859 4 11.9716 4C10.8573 4 10.0001 4.85714 10.0001 5.97143C10.0001 7.08571 10.8573 7.94286 11.9716 7.94286ZM11.9714 9.99997C10.8571 9.99997 10 10.8571 10 11.9714C10 13.0857 10.8571 13.9428 11.9714 13.9428C13.0857 13.9428 13.9429 13 13.9429 11.9714C13.9429 10.9428 13.0857 9.99997 11.9714 9.99997ZM10 17.9714C10 16.9428 10.8571 16 11.9714 16C13.0857 16 13.9429 16.8571 13.9429 17.9714C13.9429 19.0857 13.0857 19.9428 11.9714 19.9428C10.8571 19.9428 10 19.0857 10 17.9714Z" fill="white"/>
</mask>
<g mask="url(#mask0_1841_841)">
<rect x="10" y="4" width="4" height="16" fill="#966EF7"/>
</g>
</svg>
