<svg width="17" height="17" viewBox="0 0 17 17" fill="none" xmlns="http://www.w3.org/2000/svg">
<path fill-rule="evenodd" clip-rule="evenodd" d="M16.0382 4.5669C17.7109 7.77149 17.2015 11.8187 14.5101 14.5101C11.8187 17.2015 7.77149 17.7109 4.5669 16.0382L16.0382 4.5669ZM3.57247 13.1869C1.03446 10.522 1.07385 6.30743 3.69064 3.69064C6.30743 1.07385 10.522 1.03446 13.1869 3.57247L13.8919 1.92743C10.5537 -0.817564 5.60751 -0.630549 2.48848 2.48848C-0.630549 5.60751 -0.817564 10.5537 1.92743 13.8919L3.57247 13.1869ZM5.27954 12.4553C5.14623 12.3466 5.01712 12.2301 4.89281 12.1058C2.90323 10.1162 2.90323 6.88239 4.89281 4.89281C6.88239 2.90323 10.1162 2.90323 12.1058 4.89281C12.2301 5.01712 12.3466 5.14623 12.4553 5.27954L11.6356 7.19215C11.4722 6.79368 11.2289 6.42022 10.9036 6.09497C9.57523 4.76658 7.42336 4.76658 6.09497 6.09497C4.76658 7.42336 4.76658 9.57523 6.09497 10.9036C6.42022 11.2289 6.79368 11.4722 7.19215 11.6356L5.27954 12.4553ZM8.4993 10.1994C9.43436 10.1994 10.1994 9.43436 10.1994 8.4993C10.1994 7.56423 9.43436 6.79918 8.4993 6.79918C7.56423 6.79918 6.79918 7.56423 6.79918 8.4993C6.79918 9.43436 7.56423 10.1994 8.4993 10.1994Z" fill="#1CC233"/>
</svg>
