<svg width="20" height="20" viewBox="0 0 20 20" fill="none" xmlns="http://www.w3.org/2000/svg">
<path fill-rule="evenodd" clip-rule="evenodd" d="M15.0002 9.58333C15.0002 7.025 13.6335 4.88333 11.2502 4.31667V3.75C11.2502 3.05833 10.6918 2.5 10.0002 2.5C9.3085 2.5 8.75016 3.05833 8.75016 3.75V4.31667C6.3585 4.88333 5.00016 7.01667 5.00016 9.58333V13.75L3.3335 15.4167V16.25H16.6668V15.4167L15.0002 13.75V9.58333ZM10.0002 18.75C10.1169 18.75 10.2252 18.7417 10.3336 18.7167C10.8752 18.6 11.3169 18.2333 11.5336 17.7333C11.6169 17.5333 11.6586 17.3167 11.6586 17.0833H8.32524C8.33357 18 9.07524 18.75 10.0002 18.75Z" fill="#959595"/>
</svg>
