<svg width="20" height="20" viewBox="0 0 20 20" fill="none" xmlns="http://www.w3.org/2000/svg">
<path d="M9.16699 7.49992H10.8337V4.99992H13.3337V3.33325H10.8337V0.833252H9.16699V3.33325H6.66699V4.99992H9.16699V7.49992Z" fill="#959595"/>
<path d="M5.83366 14.9998C4.91699 14.9998 4.16699 15.7498 4.16699 16.6664C4.16699 17.5831 4.91699 18.3331 5.83366 18.3331C6.75033 18.3331 7.50033 17.5831 7.50033 16.6664C7.50033 15.7498 6.75033 14.9998 5.83366 14.9998Z" fill="#959595"/>
<path d="M14.1667 14.9998C13.25 14.9998 12.5 15.7498 12.5 16.6664C12.5 17.5831 13.25 18.3331 14.1667 18.3331C15.0833 18.3331 15.8333 17.5831 15.8333 16.6664C15.8333 15.7498 15.0833 14.9998 14.1667 14.9998Z" fill="#959595"/>
<path d="M6.00016 12.3332V12.2498L6.75016 10.8332H12.9168C13.5002 10.8332 14.0835 10.4998 14.3335 9.99984L17.5835 4.1665L16.1668 3.33317L15.2502 4.99984L12.9168 9.1665H7.0835L7.00016 8.9165L5.16683 4.99984L4.3335 3.33317L3.5835 1.6665H0.833496V3.33317H2.50016L5.50016 9.6665L4.41683 11.6665C4.25016 11.9165 4.16683 12.1665 4.16683 12.4998C4.16683 13.4165 4.91683 14.1665 5.8335 14.1665H15.8335V12.4998H6.16683C6.0835 12.4998 6.00016 12.4165 6.00016 12.3332Z" fill="#959595"/>
</svg>
