<svg width="20" height="20" viewBox="0 0 20 20" fill="none" xmlns="http://www.w3.org/2000/svg">
<circle cx="9.99967" cy="10.0002" r="2.66667" fill="#959595"/>
<path fill-rule="evenodd" clip-rule="evenodd" d="M5.99984 3.33341L7.49984 1.66675H12.4998L13.9998 3.33341H16.6665C17.5832 3.33341 18.3332 4.08341 18.3332 5.00008V15.0001C18.3332 15.9167 17.5832 16.6667 16.6665 16.6667H3.33317C2.4165 16.6667 1.6665 15.9167 1.6665 15.0001V5.00008C1.6665 4.08341 2.4165 3.33341 3.33317 3.33341H5.99984ZM5.83317 10.0001C5.83317 12.3334 7.6665 14.1667 9.99984 14.1667C12.3332 14.1667 14.1665 12.3334 14.1665 10.0001C14.1665 7.66675 12.3332 5.83341 9.99984 5.83341C7.6665 5.83341 5.83317 7.66675 5.83317 10.0001Z" fill="#959595"/>
</svg>
