<svg width="533" height="40" viewBox="0 0 533 40" fill="none" xmlns="http://www.w3.org/2000/svg">
<path fill-rule="evenodd" clip-rule="evenodd" d="M333.529 0C322.226 0 310.923 0 299.619 0C294.321 0 289.023 0 283.724 0C189.15 0 0 0 0 0V40H533V0C533 0 400.019 0 333.529 0Z" fill="white"/>
<path fill-rule="evenodd" clip-rule="evenodd" d="M470.583 27.5V28.333H476.416V27.5H473.5H470.583Z" fill="#32D669"/>
<path fill-rule="evenodd" clip-rule="evenodd" d="M474.334 24.175V18.333H472.667V24.175H470.167L473.501 27.5L476.834 24.175H474.334Z" fill="#32D669"/>
<path fill-rule="evenodd" clip-rule="evenodd" d="M471.416 11.6667H465.583V12.4997H468.499H471.416V11.6667Z" fill="#32D669"/>
<path fill-rule="evenodd" clip-rule="evenodd" d="M468.5 12.5L465.167 15.825H467.667V21.667H469.333V15.825H471.833L468.5 12.5Z" fill="#32D669"/>
<path fill-rule="evenodd" clip-rule="evenodd" d="M514.362 16.1731C516.002 19.3146 515.503 23.2822 512.864 25.9207C510.226 28.5592 506.258 29.0585 503.117 27.4187L514.362 16.1731ZM502.142 24.6235C499.654 22.011 499.692 17.8794 502.258 15.3141C504.823 12.7488 508.955 12.7102 511.567 15.1982L512.258 13.5856C508.986 10.8946 504.137 11.0779 501.079 14.1356C498.022 17.1932 497.838 22.0421 500.529 25.3146L502.142 24.6235ZM503.815 23.9062C503.685 23.7997 503.558 23.6855 503.436 23.5637C501.486 21.6132 501.486 18.443 503.436 16.4926C505.387 14.5421 508.557 14.5421 510.507 16.4926C510.629 16.6145 510.743 16.741 510.85 16.8717L510.046 18.7467C509.886 18.3561 509.648 17.99 509.329 17.6711C508.026 16.3688 505.917 16.3688 504.615 17.6711C503.312 18.9734 503.312 21.0829 504.615 22.3851C504.934 22.704 505.3 22.9425 505.69 23.1027L503.815 23.9062ZM506.972 21.6948C507.888 21.6948 508.638 20.9448 508.638 20.0281C508.638 19.1115 507.888 18.3615 506.972 18.3615C506.055 18.3615 505.305 19.1115 505.305 20.0281C505.305 20.9448 506.055 21.6948 506.972 21.6948Z" fill="#32D669"/>
<path d="M19.732 16.624C20.412 16.624 20.952 16.688 21.352 16.816C21.752 16.936 22.04 17.152 22.216 17.464C22.4 17.776 22.492 18.216 22.492 18.784C22.492 19.376 22.38 19.828 22.156 20.14C21.94 20.452 21.584 20.632 21.088 20.68V20.728C21.704 20.784 22.132 21 22.372 21.376C22.62 21.752 22.744 22.272 22.744 22.936C22.744 23.504 22.656 23.944 22.48 24.256C22.304 24.568 22.02 24.788 21.628 24.916C21.244 25.036 20.736 25.096 20.104 25.096C19.632 25.096 19.224 25.092 18.88 25.084C18.544 25.084 18.232 25.076 17.944 25.06C17.656 25.044 17.356 25.024 17.044 25L17.212 24.16C17.388 24.168 17.72 24.176 18.208 24.184C18.704 24.192 19.28 24.196 19.936 24.196C20.376 24.196 20.72 24.16 20.968 24.088C21.224 24.008 21.404 23.864 21.508 23.656C21.62 23.448 21.676 23.148 21.676 22.756C21.676 22.324 21.62 21.992 21.508 21.76C21.396 21.528 21.208 21.364 20.944 21.268C20.68 21.172 20.32 21.12 19.864 21.112H17.2V20.308H19.852C20.252 20.3 20.568 20.26 20.8 20.188C21.04 20.108 21.212 19.968 21.316 19.768C21.42 19.56 21.472 19.272 21.472 18.904C21.472 18.528 21.416 18.24 21.304 18.04C21.192 17.84 21.004 17.704 20.74 17.632C20.484 17.56 20.132 17.524 19.684 17.524C19.292 17.524 18.94 17.524 18.628 17.524C18.316 17.524 18.04 17.528 17.8 17.536C17.568 17.536 17.372 17.544 17.212 17.56L17.044 16.72C17.324 16.688 17.588 16.668 17.836 16.66C18.092 16.644 18.368 16.636 18.664 16.636C18.968 16.628 19.324 16.624 19.732 16.624ZM18.076 16.72V25H17.044V16.72H18.076ZM29.5254 19.156V25H28.6014V21.124C28.6014 20.996 28.6054 20.872 28.6134 20.752C28.6214 20.624 28.6294 20.488 28.6374 20.344H28.6134C28.5654 20.456 28.5014 20.576 28.4214 20.704C28.3494 20.824 28.2774 20.932 28.2054 21.028L25.2294 25H24.3894V19.156H25.3134V23.032C25.3134 23.16 25.3094 23.288 25.3014 23.416C25.3014 23.536 25.2934 23.668 25.2774 23.812H25.3014C25.3654 23.692 25.4334 23.572 25.5054 23.452C25.5774 23.332 25.6494 23.228 25.7214 23.14L28.6974 19.156H29.5254ZM32.9564 19.06C33.6044 19.06 34.1204 19.104 34.5044 19.192C34.8884 19.272 35.1644 19.424 35.3324 19.648C35.5084 19.872 35.5964 20.196 35.5964 20.62C35.5964 21.036 35.5044 21.356 35.3204 21.58C35.1444 21.804 34.8244 21.936 34.3604 21.976V22.012C34.8804 22.052 35.2484 22.196 35.4644 22.444C35.6884 22.692 35.8004 23.064 35.8004 23.56C35.8004 23.968 35.7164 24.284 35.5484 24.508C35.3804 24.732 35.1124 24.888 34.7444 24.976C34.3764 25.064 33.8924 25.108 33.2924 25.108C32.9324 25.108 32.5484 25.092 32.1404 25.06C31.7324 25.036 31.3444 24.992 30.9764 24.928L31.0604 24.148C31.3244 24.172 31.6524 24.196 32.0444 24.22C32.4444 24.236 32.8364 24.244 33.2204 24.244C33.8124 24.244 34.2124 24.184 34.4204 24.064C34.6364 23.936 34.7444 23.696 34.7444 23.344C34.7444 23.096 34.6964 22.904 34.6004 22.768C34.5124 22.632 34.3564 22.536 34.1324 22.48C33.9164 22.424 33.6204 22.396 33.2444 22.396H31.8404V21.652L33.2324 21.64C33.5844 21.64 33.8564 21.616 34.0484 21.568C34.2484 21.512 34.3884 21.42 34.4684 21.292C34.5484 21.164 34.5884 20.984 34.5884 20.752C34.5884 20.52 34.5364 20.348 34.4324 20.236C34.3364 20.116 34.1724 20.036 33.9404 19.996C33.7084 19.948 33.3844 19.924 32.9684 19.924C32.6564 19.924 32.3444 19.932 32.0324 19.948C31.7204 19.964 31.4564 19.988 31.2404 20.02L31.1564 19.24C31.4844 19.16 31.8044 19.112 32.1164 19.096C32.4364 19.072 32.7164 19.06 32.9564 19.06ZM42.5215 19.156V25H41.5975V21.124C41.5975 20.996 41.6015 20.872 41.6095 20.752C41.6175 20.624 41.6255 20.488 41.6335 20.344H41.6095C41.5615 20.456 41.4975 20.576 41.4175 20.704C41.3455 20.824 41.2735 20.932 41.2015 21.028L38.2255 25H37.3855V19.156H38.3095V23.032C38.3095 23.16 38.3055 23.288 38.2975 23.416C38.2975 23.536 38.2895 23.668 38.2735 23.812H38.2975C38.3615 23.692 38.4295 23.572 38.5015 23.452C38.5735 23.332 38.6455 23.228 38.7175 23.14L41.6935 19.156H42.5215ZM46.9365 19.156V25H45.9165V19.156H46.9365ZM49.0485 19.156V19.996H43.7925V19.156H49.0485ZM52.6873 21.424C53.2713 21.424 53.7273 21.48 54.0553 21.592C54.3833 21.704 54.6153 21.896 54.7513 22.168C54.8953 22.432 54.9673 22.792 54.9673 23.248C54.9673 23.72 54.8953 24.092 54.7513 24.364C54.6073 24.628 54.3793 24.812 54.0673 24.916C53.7553 25.02 53.3473 25.072 52.8433 25.072C52.4593 25.072 52.1273 25.068 51.8473 25.06C51.5673 25.06 51.3113 25.052 51.0793 25.036C50.8473 25.028 50.6033 25.016 50.3473 25L50.4793 24.232C50.6233 24.24 50.8913 24.248 51.2833 24.256C51.6833 24.264 52.1513 24.268 52.6873 24.268C52.9993 24.268 53.2433 24.24 53.4193 24.184C53.6033 24.128 53.7353 24.024 53.8153 23.872C53.8953 23.72 53.9353 23.5 53.9353 23.212C53.9353 22.828 53.8473 22.56 53.6713 22.408C53.5033 22.256 53.1753 22.18 52.6873 22.18H50.4673V21.424H52.6873ZM51.3073 19.156V25H50.3113V19.156H51.3073ZM57.0673 19.156V25H56.0353V19.156H57.0673Z" fill="#666666"/>
<path d="M143.432 16.72V25H142.376V18.436C142.376 18.316 142.38 18.196 142.388 18.076C142.396 17.956 142.412 17.836 142.436 17.716L140.408 18.352L140.264 17.572L142.376 16.72H143.432ZM153.537 19.156V25H152.613V21.124C152.613 20.996 152.617 20.872 152.625 20.752C152.633 20.624 152.641 20.488 152.649 20.344H152.625C152.577 20.456 152.513 20.576 152.433 20.704C152.361 20.824 152.289 20.932 152.217 21.028L149.241 25H148.401V19.156H149.325V23.032C149.325 23.16 149.321 23.288 149.313 23.416C149.313 23.536 149.305 23.668 149.289 23.812H149.313C149.377 23.692 149.445 23.572 149.517 23.452C149.589 23.332 149.661 23.228 149.733 23.14L152.709 19.156H153.537ZM156.968 19.06C157.616 19.06 158.132 19.104 158.516 19.192C158.9 19.272 159.176 19.424 159.344 19.648C159.52 19.872 159.608 20.196 159.608 20.62C159.608 21.036 159.516 21.356 159.332 21.58C159.156 21.804 158.836 21.936 158.372 21.976V22.012C158.892 22.052 159.26 22.196 159.476 22.444C159.7 22.692 159.812 23.064 159.812 23.56C159.812 23.968 159.728 24.284 159.56 24.508C159.392 24.732 159.124 24.888 158.756 24.976C158.388 25.064 157.904 25.108 157.304 25.108C156.944 25.108 156.56 25.092 156.152 25.06C155.744 25.036 155.356 24.992 154.988 24.928L155.072 24.148C155.336 24.172 155.664 24.196 156.056 24.22C156.456 24.236 156.848 24.244 157.232 24.244C157.824 24.244 158.224 24.184 158.432 24.064C158.648 23.936 158.756 23.696 158.756 23.344C158.756 23.096 158.708 22.904 158.612 22.768C158.524 22.632 158.368 22.536 158.144 22.48C157.928 22.424 157.632 22.396 157.256 22.396H155.852V21.652L157.244 21.64C157.596 21.64 157.868 21.616 158.06 21.568C158.26 21.512 158.4 21.42 158.48 21.292C158.56 21.164 158.6 20.984 158.6 20.752C158.6 20.52 158.548 20.348 158.444 20.236C158.348 20.116 158.184 20.036 157.952 19.996C157.72 19.948 157.396 19.924 156.98 19.924C156.668 19.924 156.356 19.932 156.044 19.948C155.732 19.964 155.468 19.988 155.252 20.02L155.168 19.24C155.496 19.16 155.816 19.112 156.128 19.096C156.448 19.072 156.728 19.06 156.968 19.06ZM166.769 16.6C167.297 16.6 167.729 16.644 168.065 16.732C168.409 16.82 168.677 16.952 168.869 17.128C169.069 17.304 169.205 17.532 169.277 17.812C169.357 18.084 169.397 18.408 169.397 18.784C169.397 19.144 169.357 19.46 169.277 19.732C169.197 20.004 169.069 20.224 168.893 20.392C168.725 20.552 168.501 20.648 168.221 20.68V20.728C168.573 20.76 168.845 20.872 169.037 21.064C169.237 21.248 169.377 21.5 169.457 21.82C169.537 22.132 169.577 22.504 169.577 22.936C169.577 23.44 169.501 23.856 169.349 24.184C169.197 24.504 168.917 24.74 168.509 24.892C168.109 25.044 167.529 25.12 166.769 25.12C166.025 25.12 165.449 25.044 165.041 24.892C164.633 24.74 164.349 24.504 164.189 24.184C164.029 23.856 163.949 23.44 163.949 22.936C163.949 22.504 163.989 22.132 164.069 21.82C164.157 21.5 164.301 21.248 164.501 21.064C164.701 20.872 164.973 20.76 165.317 20.728V20.68C165.037 20.648 164.809 20.552 164.633 20.392C164.457 20.224 164.329 20.004 164.249 19.732C164.169 19.46 164.129 19.144 164.129 18.784C164.129 18.408 164.169 18.084 164.249 17.812C164.329 17.532 164.465 17.304 164.657 17.128C164.857 16.952 165.125 16.82 165.461 16.732C165.805 16.644 166.241 16.6 166.769 16.6ZM166.793 21.124C166.417 21.124 166.109 21.148 165.869 21.196C165.629 21.244 165.441 21.328 165.305 21.448C165.169 21.56 165.073 21.72 165.017 21.928C164.969 22.136 164.945 22.4 164.945 22.72C164.945 23.088 164.993 23.384 165.089 23.608C165.193 23.824 165.377 23.98 165.641 24.076C165.913 24.164 166.293 24.208 166.781 24.208C167.269 24.208 167.641 24.164 167.897 24.076C168.153 23.98 168.329 23.824 168.425 23.608C168.521 23.384 168.569 23.088 168.569 22.72C168.569 22.392 168.541 22.124 168.485 21.916C168.437 21.708 168.349 21.548 168.221 21.436C168.093 21.316 167.913 21.236 167.681 21.196C167.449 21.148 167.153 21.124 166.793 21.124ZM166.781 17.452C166.325 17.452 165.977 17.496 165.737 17.584C165.497 17.672 165.329 17.82 165.233 18.028C165.145 18.236 165.101 18.52 165.101 18.88C165.101 19.256 165.145 19.548 165.233 19.756C165.329 19.956 165.497 20.096 165.737 20.176C165.985 20.248 166.337 20.284 166.793 20.284C167.257 20.284 167.605 20.244 167.837 20.164C168.077 20.084 168.237 19.944 168.317 19.744C168.397 19.536 168.437 19.248 168.437 18.88C168.437 18.52 168.393 18.236 168.305 18.028C168.225 17.82 168.065 17.672 167.825 17.584C167.585 17.496 167.237 17.452 166.781 17.452ZM176.886 15.52L177.018 16.012C176.218 16.404 175.634 17.036 175.266 17.908C174.906 18.772 174.726 19.884 174.726 21.244C174.726 22.132 174.806 22.92 174.966 23.608C175.126 24.296 175.374 24.876 175.71 25.348C176.046 25.828 176.482 26.208 177.018 26.488L176.886 26.98C175.798 26.556 174.998 25.884 174.486 24.964C173.982 24.036 173.73 22.8 173.73 21.256C173.73 19.704 173.982 18.464 174.486 17.536C174.998 16.608 175.798 15.936 176.886 15.52ZM183.323 21.028V21.796H178.067V21.028H183.323ZM181.091 18.916L181.079 23.92H180.311L180.299 18.916H181.091ZM187.436 16.72V25H186.38V18.436C186.38 18.316 186.384 18.196 186.392 18.076C186.4 17.956 186.416 17.836 186.44 17.716L184.412 18.352L184.268 17.572L186.38 16.72H187.436ZM189.031 15.52C190.127 15.936 190.927 16.608 191.431 17.536C191.943 18.464 192.199 19.704 192.199 21.256C192.199 22.8 191.943 24.036 191.431 24.964C190.927 25.884 190.127 26.556 189.031 26.98L188.911 26.488C189.447 26.208 189.879 25.828 190.207 25.348C190.543 24.876 190.791 24.296 190.951 23.608C191.111 22.92 191.191 22.132 191.191 21.244C191.191 19.884 191.011 18.772 190.651 17.908C190.291 17.036 189.711 16.404 188.911 16.012L189.031 15.52Z" fill="#666666"/>
<rect x="68" y="18" width="64" height="4" fill="#DCF8E5"/>
<rect x="68" y="18" width="8" height="4" fill="#32D669"/>
<rect width="533" height="1" fill="#E4E4E4"/>
</svg>
