<svg width="24" height="24" viewBox="0 0 24 24" fill="none" xmlns="http://www.w3.org/2000/svg">
<mask id="mask0_1841_839" style="mask-type:luminance" maskUnits="userSpaceOnUse" x="3" y="3" width="18" height="18">
<path fill-rule="evenodd" clip-rule="evenodd" d="M15.5 14H14.71L14.43 13.73C15.41 12.59 16 11.11 16 9.5C16 5.91 13.09 3 9.5 3C5.91 3 3 5.91 3 9.5C3 13.09 5.91 16 9.5 16C11.11 16 12.59 15.41 13.73 14.43L14 14.71V15.5L19 20.49L20.49 19L15.5 14ZM9.50014 14C7.01014 14 5.00014 11.99 5.00014 9.50003C5.00014 7.01004 7.01014 5.00003 9.50014 5.00003C11.9901 5.00003 14.0001 7.01004 14.0001 9.50003C14.0001 11.99 11.9901 14 9.50014 14Z" fill="white"/>
</mask>
<g mask="url(#mask0_1841_839)">
<rect width="24" height="24" fill="#966EF7"/>
</g>
</svg>
