<svg width="533" height="24" viewBox="0 0 533 24" fill="none" xmlns="http://www.w3.org/2000/svg">
<path fill-rule="evenodd" clip-rule="evenodd" d="M0 0V24H533V0H0Z" fill="#666666"/>
<mask id="mask0_1841_857" style="mask-type:luminance" maskUnits="userSpaceOnUse" x="423" y="6" width="16" height="12">
<path fill-rule="evenodd" clip-rule="evenodd" d="M423 6L431 18L439 6H423Z" fill="white"/>
</mask>
<g mask="url(#mask0_1841_857)">
<path fill-rule="evenodd" clip-rule="evenodd" d="M431 6C424.4 6 419 11.4 419 18C419 24.6 424.4 30 431 30C437.6 30 443 24.6 443 18C443 11.4 437.6 6 431 6ZM431 27C426 27 422 23 422 18C422 13 426 9 431 9C436 9 440 13 440 18C440 23 436 27 431 27Z" fill="white" fill-opacity="0.3"/>
<path fill-rule="evenodd" clip-rule="evenodd" d="M431 9C426 9 422 13 422 18C422 23 426 27 431 27C436 27 440 23 440 18C440 13 436 9 431 9ZM431 24C427.7 24 425 21.3 425 18C425 14.7 427.7 12 431 12C434.3 12 437 14.7 437 18C437 21.3 434.3 24 431 24Z" fill="white" fill-opacity="0.9"/>
<path fill-rule="evenodd" clip-rule="evenodd" d="M431 12C427.7 12 425 14.7 425 18C425 21.3 427.7 24 431 24C434.3 24 437 21.3 437 18C437 14.7 434.3 12 431 12ZM431 21C429.3 21 428 19.7 428 18C428 16.3 429.3 15 431 15C432.7 15 434 16.3 434 18C434 19.7 432.7 21 431 21Z" fill="white" fill-opacity="0.9"/>
<circle cx="431" cy="18" r="3" fill="white" fill-opacity="0.9"/>
</g>
<mask id="mask1_1841_857" style="mask-type:luminance" maskUnits="userSpaceOnUse" x="449" y="6" width="12" height="12">
<path fill-rule="evenodd" clip-rule="evenodd" d="M461 18V6L449 18H461Z" fill="white"/>
</mask>
<g mask="url(#mask1_1841_857)">
<path fill-rule="evenodd" clip-rule="evenodd" d="M458 6V18H461V6H458Z" fill="white" fill-opacity="0.3"/>
<path fill-rule="evenodd" clip-rule="evenodd" d="M455 6V18H458V6H455Z" fill="white" fill-opacity="0.3"/>
<path fill-rule="evenodd" clip-rule="evenodd" d="M452 6V18H455V6H452Z" fill="white" fill-opacity="0.9"/>
<path fill-rule="evenodd" clip-rule="evenodd" d="M449 6V18H452V6H449Z" fill="white" fill-opacity="0.9"/>
</g>
<mask id="mask2_1841_857" style="mask-type:luminance" maskUnits="userSpaceOnUse" x="475" y="5" width="8" height="13">
<path fill-rule="evenodd" clip-rule="evenodd" d="M482 6H481V5H477V6H476C475.4 6 475 6.4 475 7V17C475 17.6 475.4 18 476 18H482C482.6 18 483 17.6 483 17V7C483 6.4 482.6 6 482 6Z" fill="white"/>
</mask>
<g mask="url(#mask2_1841_857)">
<path fill-rule="evenodd" clip-rule="evenodd" d="M475 15V18H483V15H475Z" fill="white" fill-opacity="0.9"/>
<path fill-rule="evenodd" clip-rule="evenodd" d="M475 12V15H483V12H475Z" fill="white" fill-opacity="0.9"/>
<path fill-rule="evenodd" clip-rule="evenodd" d="M475 9V12H483V9H475Z" fill="white" fill-opacity="0.3"/>
<path fill-rule="evenodd" clip-rule="evenodd" d="M475 6V9H483V6H475Z" fill="white" fill-opacity="0.3"/>
<path fill-rule="evenodd" clip-rule="evenodd" d="M477 5V6H481V5H477Z" fill="white" fill-opacity="0.3"/>
</g>
<g opacity="0.9">
<path d="M496.627 7.70703V17H495.453V9.17334L493.085 10.0366V8.97656L496.443 7.70703H496.627ZM506.136 16.0352V17H500.087V16.1558L503.115 12.7852C503.487 12.3704 503.775 12.0192 503.978 11.7314C504.185 11.4395 504.329 11.1792 504.41 10.9507C504.494 10.7179 504.537 10.481 504.537 10.2397C504.537 9.93506 504.473 9.65999 504.346 9.41455C504.223 9.16488 504.042 8.96598 503.8 8.81787C503.559 8.66976 503.267 8.5957 502.924 8.5957C502.514 8.5957 502.171 8.67611 501.896 8.83691C501.625 8.99349 501.422 9.21354 501.287 9.49707C501.151 9.7806 501.083 10.1064 501.083 10.4746H499.909C499.909 9.9541 500.023 9.47803 500.252 9.04639C500.48 8.61475 500.819 8.27197 501.268 8.01807C501.716 7.75993 502.268 7.63086 502.924 7.63086C503.508 7.63086 504.008 7.73454 504.422 7.94189C504.837 8.14502 505.154 8.43278 505.375 8.80518C505.599 9.17334 505.711 9.60498 505.711 10.1001C505.711 10.3709 505.664 10.646 505.571 10.9253C505.482 11.2004 505.358 11.4754 505.197 11.7505C505.04 12.0256 504.856 12.2964 504.645 12.563C504.437 12.8296 504.215 13.092 503.978 13.3501L501.502 16.0352H506.136ZM507.469 16.3779C507.469 16.179 507.531 16.0119 507.653 15.8765C507.78 15.7368 507.962 15.667 508.199 15.667C508.436 15.667 508.616 15.7368 508.739 15.8765C508.866 16.0119 508.929 16.179 508.929 16.3779C508.929 16.5726 508.866 16.7376 508.739 16.873C508.616 17.0085 508.436 17.0762 508.199 17.0762C507.962 17.0762 507.78 17.0085 507.653 16.873C507.531 16.7376 507.469 16.5726 507.469 16.3779ZM507.476 10.7729C507.476 10.5741 507.537 10.4069 507.66 10.2715C507.787 10.1318 507.969 10.062 508.206 10.062C508.443 10.062 508.622 10.1318 508.745 10.2715C508.872 10.4069 508.936 10.5741 508.936 10.7729C508.936 10.9676 508.872 11.1326 508.745 11.2681C508.622 11.4035 508.443 11.4712 508.206 11.4712C507.969 11.4712 507.787 11.4035 507.66 11.2681C507.537 11.1326 507.476 10.9676 507.476 10.7729ZM512.255 11.8013H513.093C513.504 11.8013 513.842 11.7336 514.109 11.5981C514.38 11.4585 514.581 11.2702 514.712 11.0332C514.847 10.792 514.915 10.5212 514.915 10.2207C514.915 9.86523 514.856 9.56689 514.737 9.32568C514.619 9.08447 514.441 8.90251 514.204 8.77979C513.967 8.65706 513.667 8.5957 513.303 8.5957C512.973 8.5957 512.681 8.6613 512.427 8.79248C512.177 8.91943 511.98 9.1014 511.836 9.33838C511.697 9.57536 511.627 9.85465 511.627 10.1763H510.453C510.453 9.70654 510.571 9.27913 510.808 8.89404C511.045 8.50895 511.377 8.20215 511.805 7.97363C512.236 7.74512 512.736 7.63086 513.303 7.63086C513.861 7.63086 514.35 7.73031 514.769 7.9292C515.188 8.12386 515.514 8.41585 515.747 8.80518C515.979 9.19027 516.096 9.67057 516.096 10.2461C516.096 10.4788 516.041 10.7285 515.931 10.9951C515.825 11.2575 515.658 11.5029 515.429 11.7314C515.205 11.96 514.913 12.1483 514.553 12.2964C514.194 12.4403 513.762 12.5122 513.258 12.5122H512.255V11.8013ZM512.255 12.7661V12.0615H513.258C513.847 12.0615 514.333 12.1313 514.718 12.271C515.103 12.4106 515.406 12.5968 515.626 12.8296C515.85 13.0623 516.007 13.3184 516.096 13.5977C516.189 13.8727 516.235 14.1478 516.235 14.4229C516.235 14.8545 516.161 15.2375 516.013 15.5718C515.869 15.9061 515.664 16.1896 515.397 16.4224C515.135 16.6551 514.826 16.8307 514.471 16.9492C514.115 17.0677 513.728 17.127 513.309 17.127C512.907 17.127 512.528 17.0698 512.173 16.9556C511.822 16.8413 511.511 16.6763 511.24 16.4604C510.969 16.2404 510.757 15.9717 510.605 15.6543C510.453 15.3327 510.376 14.9666 510.376 14.5562H511.551C511.551 14.8778 511.621 15.1592 511.76 15.4004C511.904 15.6416 512.107 15.8299 512.37 15.9653C512.636 16.0965 512.949 16.1621 513.309 16.1621C513.669 16.1621 513.978 16.1007 514.236 15.978C514.498 15.8511 514.699 15.6606 514.839 15.4067C514.983 15.1528 515.055 14.8333 515.055 14.4482C515.055 14.0632 514.974 13.7479 514.813 13.5024C514.653 13.2528 514.424 13.0687 514.128 12.9502C513.836 12.8275 513.491 12.7661 513.093 12.7661H512.255ZM523.656 11.6426V13.0518C523.656 13.8092 523.588 14.4482 523.453 14.9688C523.317 15.4893 523.123 15.9082 522.869 16.2256C522.615 16.543 522.308 16.7736 521.948 16.9175C521.593 17.0571 521.191 17.127 520.742 17.127C520.387 17.127 520.059 17.0825 519.758 16.9937C519.458 16.9048 519.187 16.763 518.946 16.5684C518.709 16.3695 518.506 16.1113 518.336 15.7939C518.167 15.4766 518.038 15.0915 517.949 14.6387C517.86 14.1859 517.816 13.6569 517.816 13.0518V11.6426C517.816 10.8851 517.884 10.2503 518.019 9.73828C518.159 9.22624 518.355 8.81576 518.609 8.50684C518.863 8.19368 519.168 7.9694 519.523 7.83398C519.883 7.69857 520.285 7.63086 520.729 7.63086C521.089 7.63086 521.419 7.67529 521.72 7.76416C522.024 7.8488 522.295 7.98633 522.532 8.17676C522.769 8.36296 522.97 8.61263 523.135 8.92578C523.305 9.2347 523.434 9.61344 523.522 10.062C523.611 10.5106 523.656 11.0374 523.656 11.6426ZM522.475 13.2422V11.4458C522.475 11.0311 522.45 10.6672 522.399 10.354C522.352 10.0366 522.283 9.76579 522.189 9.5415C522.096 9.31722 521.978 9.13525 521.834 8.99561C521.694 8.85596 521.531 8.75439 521.345 8.69092C521.163 8.62321 520.958 8.58936 520.729 8.58936C520.45 8.58936 520.203 8.64225 519.987 8.74805C519.771 8.84961 519.589 9.01253 519.441 9.23682C519.297 9.4611 519.187 9.75521 519.111 10.1191C519.035 10.4831 518.997 10.9253 518.997 11.4458V13.2422C518.997 13.6569 519.02 14.0229 519.066 14.3403C519.117 14.6577 519.191 14.9328 519.289 15.1655C519.386 15.394 519.504 15.5824 519.644 15.7305C519.784 15.8786 519.944 15.9886 520.126 16.0605C520.313 16.1283 520.518 16.1621 520.742 16.1621C521.03 16.1621 521.282 16.1071 521.498 15.9971C521.713 15.887 521.893 15.7157 522.037 15.4829C522.185 15.2459 522.295 14.9434 522.367 14.5752C522.439 14.2028 522.475 13.7585 522.475 13.2422Z" fill="white"/>
</g>
</svg>
