<svg width="20" height="20" viewBox="0 0 20 20" fill="none" xmlns="http://www.w3.org/2000/svg">
<path fill-rule="evenodd" clip-rule="evenodd" d="M1.6665 9.99996C1.6665 5.41663 5.4165 1.66663 9.99984 1.66663C14.5832 1.66663 18.3332 5.41663 18.3332 9.99996C18.3332 14.5833 14.5832 18.3333 9.99984 18.3333C5.4165 18.3333 1.6665 14.5833 1.6665 9.99996ZM3.33317 9.99996C3.33317 13.6666 6.33317 16.6666 9.99984 16.6666C13.6665 16.6666 16.6665 13.6666 16.6665 9.99996C16.6665 6.33329 13.6665 3.33329 9.99984 3.33329C6.33317 3.33329 3.33317 6.33329 3.33317 9.99996Z" fill="#F68C29"/>
<path d="M7.5 7.5H12.5V12.5H7.5V7.5Z" fill="#F68C29"/>
</svg>
